<mxfile host="app.diagrams.net" agent="Mozilla/5.0 (Windows NT 10.0; Win64; x64) AppleWebKit/537.36 (KHTML, like Gecko) Chrome/133.0.0.0 Safari/537.36" version="26.0.15">
  <diagram name="Page-1" id="hOcG4phQTOyPxKc1nCWj">
    <mxGraphModel dx="1621" dy="446" grid="1" gridSize="10" guides="1" tooltips="1" connect="1" arrows="1" fold="1" page="1" pageScale="1" pageWidth="827" pageHeight="1169" math="0" shadow="0">
      <root>
        <mxCell id="0" />
        <mxCell id="1" parent="0" />
        <mxCell id="HrqCQPo31Mj4RG9YjITg-5" value="" style="edgeStyle=orthogonalEdgeStyle;rounded=0;orthogonalLoop=1;jettySize=auto;html=1;" edge="1" parent="1" source="HrqCQPo31Mj4RG9YjITg-3" target="HrqCQPo31Mj4RG9YjITg-4">
          <mxGeometry relative="1" as="geometry" />
        </mxCell>
        <mxCell id="HrqCQPo31Mj4RG9YjITg-3" value="Open Create Page" style="rounded=0;whiteSpace=wrap;html=1;" vertex="1" parent="1">
          <mxGeometry x="80" y="60" width="120" height="60" as="geometry" />
        </mxCell>
        <mxCell id="HrqCQPo31Mj4RG9YjITg-7" value="" style="edgeStyle=orthogonalEdgeStyle;rounded=0;orthogonalLoop=1;jettySize=auto;html=1;" edge="1" parent="1" source="HrqCQPo31Mj4RG9YjITg-4" target="HrqCQPo31Mj4RG9YjITg-6">
          <mxGeometry relative="1" as="geometry" />
        </mxCell>
        <mxCell id="HrqCQPo31Mj4RG9YjITg-4" value="Generates ExternalQuizId" style="rounded=0;whiteSpace=wrap;html=1;" vertex="1" parent="1">
          <mxGeometry x="80" y="170" width="120" height="60" as="geometry" />
        </mxCell>
        <mxCell id="HrqCQPo31Mj4RG9YjITg-9" style="edgeStyle=orthogonalEdgeStyle;rounded=0;orthogonalLoop=1;jettySize=auto;html=1;exitX=0.5;exitY=1;exitDx=0;exitDy=0;" edge="1" parent="1" source="HrqCQPo31Mj4RG9YjITg-6" target="HrqCQPo31Mj4RG9YjITg-8">
          <mxGeometry relative="1" as="geometry" />
        </mxCell>
        <mxCell id="HrqCQPo31Mj4RG9YjITg-6" value="User Adds Quiz Metadata" style="rounded=0;whiteSpace=wrap;html=1;" vertex="1" parent="1">
          <mxGeometry x="80" y="280" width="120" height="60" as="geometry" />
        </mxCell>
        <mxCell id="HrqCQPo31Mj4RG9YjITg-11" value="" style="edgeStyle=orthogonalEdgeStyle;rounded=0;orthogonalLoop=1;jettySize=auto;html=1;" edge="1" parent="1" source="HrqCQPo31Mj4RG9YjITg-8" target="HrqCQPo31Mj4RG9YjITg-10">
          <mxGeometry relative="1" as="geometry" />
        </mxCell>
        <mxCell id="HrqCQPo31Mj4RG9YjITg-12" value="yes" style="edgeLabel;html=1;align=center;verticalAlign=middle;resizable=0;points=[];" vertex="1" connectable="0" parent="HrqCQPo31Mj4RG9YjITg-11">
          <mxGeometry x="-0.0111" y="1" relative="1" as="geometry">
            <mxPoint as="offset" />
          </mxGeometry>
        </mxCell>
        <mxCell id="HrqCQPo31Mj4RG9YjITg-14" style="edgeStyle=orthogonalEdgeStyle;rounded=0;orthogonalLoop=1;jettySize=auto;html=1;exitX=0.5;exitY=1;exitDx=0;exitDy=0;entryX=0.5;entryY=0;entryDx=0;entryDy=0;" edge="1" parent="1" source="HrqCQPo31Mj4RG9YjITg-8" target="HrqCQPo31Mj4RG9YjITg-13">
          <mxGeometry relative="1" as="geometry" />
        </mxCell>
        <mxCell id="HrqCQPo31Mj4RG9YjITg-15" value="no" style="edgeLabel;html=1;align=center;verticalAlign=middle;resizable=0;points=[];" vertex="1" connectable="0" parent="HrqCQPo31Mj4RG9YjITg-14">
          <mxGeometry x="-0.1556" relative="1" as="geometry">
            <mxPoint as="offset" />
          </mxGeometry>
        </mxCell>
        <mxCell id="HrqCQPo31Mj4RG9YjITg-8" value="User Adds&lt;br&gt;New Genre?" style="rhombus;whiteSpace=wrap;html=1;" vertex="1" parent="1">
          <mxGeometry x="80" y="370" width="120" height="90" as="geometry" />
        </mxCell>
        <mxCell id="HrqCQPo31Mj4RG9YjITg-16" style="edgeStyle=orthogonalEdgeStyle;rounded=0;orthogonalLoop=1;jettySize=auto;html=1;exitX=0.5;exitY=1;exitDx=0;exitDy=0;entryX=0;entryY=0.5;entryDx=0;entryDy=0;" edge="1" parent="1" source="HrqCQPo31Mj4RG9YjITg-10" target="HrqCQPo31Mj4RG9YjITg-13">
          <mxGeometry relative="1" as="geometry" />
        </mxCell>
        <mxCell id="HrqCQPo31Mj4RG9YjITg-10" value="Generate&lt;br&gt;ExternalGenreId" style="whiteSpace=wrap;html=1;" vertex="1" parent="1">
          <mxGeometry x="-100" y="385" width="120" height="60" as="geometry" />
        </mxCell>
        <mxCell id="HrqCQPo31Mj4RG9YjITg-18" value="" style="edgeStyle=orthogonalEdgeStyle;rounded=0;orthogonalLoop=1;jettySize=auto;html=1;entryX=0;entryY=0.5;entryDx=0;entryDy=0;" edge="1" parent="1" source="HrqCQPo31Mj4RG9YjITg-13" target="HrqCQPo31Mj4RG9YjITg-17">
          <mxGeometry relative="1" as="geometry" />
        </mxCell>
        <mxCell id="HrqCQPo31Mj4RG9YjITg-13" value="User Adds Question" style="rounded=0;whiteSpace=wrap;html=1;" vertex="1" parent="1">
          <mxGeometry x="80" y="490" width="120" height="60" as="geometry" />
        </mxCell>
        <mxCell id="HrqCQPo31Mj4RG9YjITg-23" value="" style="edgeStyle=orthogonalEdgeStyle;rounded=0;orthogonalLoop=1;jettySize=auto;html=1;" edge="1" parent="1" source="HrqCQPo31Mj4RG9YjITg-17" target="HrqCQPo31Mj4RG9YjITg-22">
          <mxGeometry relative="1" as="geometry" />
        </mxCell>
        <mxCell id="HrqCQPo31Mj4RG9YjITg-17" value="Generate ExternalQuestionID" style="whiteSpace=wrap;html=1;rounded=0;" vertex="1" parent="1">
          <mxGeometry x="250" y="60" width="120" height="60" as="geometry" />
        </mxCell>
        <mxCell id="HrqCQPo31Mj4RG9YjITg-19" style="edgeStyle=orthogonalEdgeStyle;rounded=0;orthogonalLoop=1;jettySize=auto;html=1;exitX=0.5;exitY=1;exitDx=0;exitDy=0;" edge="1" parent="1" source="HrqCQPo31Mj4RG9YjITg-17" target="HrqCQPo31Mj4RG9YjITg-17">
          <mxGeometry relative="1" as="geometry" />
        </mxCell>
        <mxCell id="HrqCQPo31Mj4RG9YjITg-24" style="edgeStyle=orthogonalEdgeStyle;rounded=0;orthogonalLoop=1;jettySize=auto;html=1;exitX=0.5;exitY=1;exitDx=0;exitDy=0;entryX=0.5;entryY=1;entryDx=0;entryDy=0;" edge="1" parent="1" source="HrqCQPo31Mj4RG9YjITg-22" target="HrqCQPo31Mj4RG9YjITg-13">
          <mxGeometry relative="1" as="geometry" />
        </mxCell>
        <mxCell id="HrqCQPo31Mj4RG9YjITg-25" value="yes" style="edgeLabel;html=1;align=center;verticalAlign=middle;resizable=0;points=[];" vertex="1" connectable="0" parent="HrqCQPo31Mj4RG9YjITg-24">
          <mxGeometry x="-0.7288" y="1" relative="1" as="geometry">
            <mxPoint as="offset" />
          </mxGeometry>
        </mxCell>
        <mxCell id="HrqCQPo31Mj4RG9YjITg-27" value="" style="edgeStyle=orthogonalEdgeStyle;rounded=0;orthogonalLoop=1;jettySize=auto;html=1;entryX=0;entryY=0.5;entryDx=0;entryDy=0;" edge="1" parent="1" source="HrqCQPo31Mj4RG9YjITg-22" target="HrqCQPo31Mj4RG9YjITg-26">
          <mxGeometry relative="1" as="geometry" />
        </mxCell>
        <mxCell id="HrqCQPo31Mj4RG9YjITg-28" value="no" style="edgeLabel;html=1;align=center;verticalAlign=middle;resizable=0;points=[];" vertex="1" connectable="0" parent="HrqCQPo31Mj4RG9YjITg-27">
          <mxGeometry x="-0.2556" y="-4" relative="1" as="geometry">
            <mxPoint as="offset" />
          </mxGeometry>
        </mxCell>
        <mxCell id="HrqCQPo31Mj4RG9YjITg-22" value="User Adds&lt;br&gt;Another Question?" style="rhombus;whiteSpace=wrap;html=1;rounded=0;" vertex="1" parent="1">
          <mxGeometry x="245" y="190" width="130" height="130" as="geometry" />
        </mxCell>
        <mxCell id="HrqCQPo31Mj4RG9YjITg-26" value="User Adds Option" style="whiteSpace=wrap;html=1;rounded=0;" vertex="1" parent="1">
          <mxGeometry x="420" y="60" width="120" height="60" as="geometry" />
        </mxCell>
      </root>
    </mxGraphModel>
  </diagram>
</mxfile>
